# xmcd CD database file
#
# Track frame offsets:
#	150
#	13140
#	28355
#	48620
#	63715
#	76092
#	87657
#	98604
#	111185
#	124305
#
# Disc length: 1854 seconds
#
# Revision: 1
# Processed by: cddbd v1.5.1PL0 Copyright (c) Steve Scherf et al.
# Submitted via: CDex 1.51
#
DISCID=89073c0a
DTITLE=Nancy Henson - Hello Darlin'
DYEAR=1900
DGENRE=Country
TTITLE0=I Fall to Pieces
TTITLE1=You've Got to Talk to Me
TTITLE2=Have I Told You Lately
TTITLE3=Thinking About You
TTITLE4=Hello Darlin'
TTITLE5=Don't It Make My Brown Eyes Blue
TTITLE6=Diggy Liggy Lo
TTITLE7=Tennessee Waltz
TTITLE8=Wheel Hoss (recorded at age 14)
TTITLE9=Orange Blossom Special
EXTD=
EXTT0=
EXTT1=
EXTT2=
EXTT3=
EXTT4=
EXTT5=
EXTT6=
EXTT7=
EXTT8=
EXTT9=
PLAYORDER=
